<svg fill="none" viewBox="0 0 20 20" xmlns="http://www.w3.org/2000/svg" width="20" height="20" color="rgba(126, 139, 153, 1)"><path fill="currentcolor" fill-rule="evenodd" d="M6 3.75A2.75 2.75 0 0 1 8.75 1h2.5A2.75 2.75 0 0 1 14 3.75V4h3.25a.75.75 0 0 1 0 1.5h-.29l-.606 10.902A2.75 2.75 0 0 1 13.608 19H6.392a2.75 2.75 0 0 1-2.746-2.598L3.041 5.5H2.75a.75.75 0 0 1 0-1.5H6v-.25ZM4.543 5.5l.6 10.82a1.25 1.25 0 0 0 1.249 1.18h7.216a1.25 1.25 0 0 0 1.248-1.18l.601-10.82H4.543ZM12.5 4h-5v-.25c0-.69.56-1.25 1.25-1.25h2.5c.69 0 1.25.56 1.25 1.25V4ZM7.75 8a.75.75 0 0 1 .75.75v5.5a.75.75 0 0 1-1.5 0v-5.5A.75.75 0 0 1 7.75 8Zm4.5 0a.75.75 0 0 1 .75.75v5.5a.75.75 0 0 1-1.5 0v-5.5a.75.75 0 0 1 .75-.75Z" clip-rule="evenodd"></path></svg>